# xmcd
# 
# Track frame offsets:
#     182
#     15165
#     35115
#     69727
#     88105
#     105045
#     127670
#     147547
#     161902
#     178332
#     194325
#     211427
#     230167
#     250135
#     268257
#     300192
# 
# Disc length: 4200
# 
# Revision: 5
# Processed by: cddbd v1.5.2PL0 Copyright (c) Steve Scherf et al.
# Submitted via: fre:ac v1.0.17
# 
DISCID=e1106610
DTITLE=Animals - Animals with Sonny Boy Williamson
DYEAR=1992
DGENRE=Blues
TTITLE0=Let it Rock
TTITLE1=Gotta find my baby
TTITLE2=Bo Diddley
TTITLE3=Almost Grown
TTITLE4=Dimples
TTITLE5=Boom boom
TTITLE6=C.Jam blues
TTITLE7=Sonni's slow walk
TTITLE8=Pontiac blues
TTITLE9=My Babe
TTITLE10=I Don't care no more
TTITLE11=Nightime is the right time
TTITLE12=I'm gonna put you down
TTITLE13=Fattening frogs for snakes
TTITLE14=Nobody but you
TTITLE15=Bye bye Sonny bye bye
EXTD=
EXTT0=
EXTT1=
EXTT2=
EXTT3=
EXTT4=
EXTT5=
EXTT6=
EXTT7=
EXTT8=
EXTT9=
EXTT10=
EXTT11=
EXTT12=
EXTT13=
EXTT14=
EXTT15=
PLAYORDER=
